<?xml version="1.0" encoding="utf-8"?>
<!-- Generator: Adobe Illustrator 26.0.1, SVG Export Plug-In . SVG Version: 6.00 Build 0)  -->
<svg version="1.1" id="_x32_" xmlns="http://www.w3.org/2000/svg" xmlns:xlink="http://www.w3.org/1999/xlink" x="0px" y="0px"
	 viewBox="0 0 512 512" style="enable-background:new 0 0 512 512;" xml:space="preserve">
<style type="text/css">
	.st0{fill:#FFFFFF;}
</style>
<g>
	<path class="st0" d="M256,0C160,0,82.1,77.9,82.1,173.9c0,100.7,80,163.7,123.3,238.7c41.4,71.8,41.4,99.4,50.6,99.4
		s9.2-27.6,50.6-99.4c43.3-75,123.3-138,123.3-238.7C429.9,77.9,352,0,256,0z M256,240.4c-36.7,0-66.5-29.8-66.5-66.5
		c0-36.8,29.8-66.5,66.5-66.5s66.5,29.8,66.5,66.5C322.5,210.6,292.7,240.4,256,240.4z"/>
</g>
</svg>
