<?xml version="1.0" encoding="utf-8"?>
<!-- Generator: Adobe Illustrator 26.0.1, SVG Export Plug-In . SVG Version: 6.00 Build 0)  -->
<svg version="1.1" id="_x32_" xmlns="http://www.w3.org/2000/svg" xmlns:xlink="http://www.w3.org/1999/xlink" x="0px" y="0px"
	 viewBox="0 0 512 512" style="enable-background:new 0 0 512 512;" xml:space="preserve">
<style type="text/css">
	.st0{fill:#FFFFFF;}
</style>
<g>
	<path class="st0" d="M375.8,289.3c30.6-30.6,49.7-73.1,49.6-119.8c0-46.7-19-89.3-49.6-119.8C345.3,19,302.7,0,256,0
		c-46.7,0-89.3,19-119.8,49.6c-30.6,30.6-49.7,73.1-49.6,119.8c0,46.7,19,89.3,49.6,119.8c25.5,25.6,59.4,43,97.1,48.1v52.8h-78.6
		v45.5h78.6V512h45.5v-76.3h78.6v-45.5h-78.6v-52.8C316.4,332.3,350.3,314.9,375.8,289.3z M256,279.8c-15.3,0-29.8-3.1-42.9-8.7
		c-19.8-8.3-36.7-22.4-48.6-40c-11.9-17.6-18.8-38.7-18.8-61.7c0-15.3,3.1-29.8,8.7-42.9c8.3-19.8,22.4-36.7,40-48.6
		C212,66.1,233,59.2,256,59.2c15.3,0,29.8,3.1,42.9,8.7c19.8,8.3,36.7,22.4,48.6,40c11.9,17.6,18.8,38.7,18.8,61.7
		c0,15.3-3.1,29.8-8.6,42.9c-8.4,19.8-22.4,36.7-40,48.6C300,272.9,279,279.8,256,279.8z"/>
</g>
</svg>
