<?xml version="1.0" encoding="utf-8"?>
<!-- Generator: Adobe Illustrator 26.0.1, SVG Export Plug-In . SVG Version: 6.00 Build 0)  -->
<svg version="1.1" id="_x32_" xmlns="http://www.w3.org/2000/svg" xmlns:xlink="http://www.w3.org/1999/xlink" x="0px" y="0px"
	 viewBox="0 0 512 512" style="enable-background:new 0 0 512 512;" xml:space="preserve">
<style type="text/css">
	.st0{fill:#FFFFFF;}
</style>
<g>
	<path class="st0" d="M497.6,134c0,0-30.5,30.4-96.4,30.4c-49.9,0-107.2,5-145.2,55.9c-38.1-50.9-95.3-55.9-145.2-55.9
		c-66,0-96.4-30.4-96.4-30.4s-39.6,83.7,12.7,170.3c41.1,68,121.8,83.7,175,68.2c26.4-7.7,47.7-27.4,53.9-33.6
		c6.2,6.2,27.6,25.9,53.9,33.6c53.3,15.5,133.9-0.2,175-68.2C537.3,217.7,497.6,134,497.6,134z M142.2,292.1
		c-30.3-6.8-48.5-30.7-45.6-46.2c2.3-12.4,48.8-15.2,69-7.6c20.2,7.6,36.4,18.1,36.6,30C202.4,280.1,172.5,298.8,142.2,292.1z
		 M369.8,292.1c-30.3,6.8-60.2-12-60-23.8c0.2-11.9,16.4-22.4,36.6-30s66.7-4.8,69,7.6C418.3,261.4,400.1,285.3,369.8,292.1z"/>
</g>
</svg>
