<?xml version="1.0" encoding="utf-8"?>
<!-- Generator: Adobe Illustrator 26.0.1, SVG Export Plug-In . SVG Version: 6.00 Build 0)  -->
<svg version="1.1" id="_x32_" xmlns="http://www.w3.org/2000/svg" xmlns:xlink="http://www.w3.org/1999/xlink" x="0px" y="0px"
	 viewBox="0 0 512 512" style="enable-background:new 0 0 512 512;" xml:space="preserve">
<style type="text/css">
	.st0{fill:#FFFFFF;}
</style>
<g>
	<path class="st0" d="M380.6,32.2c-78,1.5-116.2,56.7-124.6,106.9c-8.5-50.2-46.6-105.4-124.6-106.9C59.5,30.8,0,86.1,0,187.1
		c0,129.6,146.6,189.4,246.8,286.2c3.5,3.4,2.7,3.3,2.7,3.3c1.6,2,4,3.2,6.5,3.2v0c0,0,0,0,0,0c0,0,0,0,0,0v0c2.5,0,4.9-1.2,6.5-3.2
		c0,0-0.8,0.1,2.7-3.3C365.4,376.5,512,316.7,512,187.1C512,86.1,452.5,30.8,380.6,32.2z"/>
</g>
</svg>
